<svg xmlns="http://www.w3.org/2000/svg" xmlns:xlink="http://www.w3.org/1999/xlink" width="1366" zoomAndPan="magnify" viewBox="0 0 1024.5 576" height="768" preserveAspectRatio="xMidYMid meet" version="1.0"><defs><clipPath id="709e283927"><path d="M 0 0.140625 L 1024 0.140625 L 1024 575.859375 L 0 575.859375 Z M 0 0.140625 " clip-rule="nonzero"/></clipPath><clipPath id="73871ea0ae"><path d="M 0 0.140625 L 327 0.140625 L 327 371.160156 L 0 371.160156 Z M 0 0.140625 " clip-rule="nonzero"/></clipPath><clipPath id="1e139bb939"><path d="M 676 188 L 1010 188 L 1010 575.859375 L 676 575.859375 Z M 676 188 " clip-rule="nonzero"/></clipPath><clipPath id="b439a3a136"><path d="M 581 0.140625 L 989 0.140625 L 989 287 L 581 287 Z M 581 0.140625 " clip-rule="nonzero"/></clipPath><clipPath id="7313f4bf17"><path d="M 588.695312 301.933594 L 537.140625 -41.296875 L 950.054688 -103.320312 L 1001.609375 239.910156 Z M 588.695312 301.933594 " clip-rule="nonzero"/></clipPath><clipPath id="f3b5430ce9"><path d="M 588.695312 301.933594 L 537.140625 -41.296875 L 950.054688 -103.320312 L 1001.609375 239.910156 Z M 588.695312 301.933594 " clip-rule="nonzero"/></clipPath><clipPath id="219c81d53c"><path d="M 641 0.140625 L 983 0.140625 L 983 232 L 641 232 Z M 641 0.140625 " clip-rule="nonzero"/></clipPath><clipPath id="e8d43b83cd"><path d="M 588.695312 301.933594 L 537.140625 -41.296875 L 950.054688 -103.320312 L 1001.609375 239.910156 Z M 588.695312 301.933594 " clip-rule="nonzero"/></clipPath><clipPath id="9568b01cca"><path d="M 588.695312 301.933594 L 537.140625 -41.296875 L 950.054688 -103.320312 L 1001.609375 239.910156 Z M 588.695312 301.933594 " clip-rule="nonzero"/></clipPath><clipPath id="3344c88a28"><path d="M 695 0.140625 L 976 0.140625 L 976 193 L 695 193 Z M 695 0.140625 " clip-rule="nonzero"/></clipPath><clipPath id="428acd01de"><path d="M 588.695312 301.933594 L 537.140625 -41.296875 L 950.054688 -103.320312 L 1001.609375 239.910156 Z M 588.695312 301.933594 " clip-rule="nonzero"/></clipPath><clipPath id="ecfaaf1532"><path d="M 588.695312 301.933594 L 537.140625 -41.296875 L 950.054688 -103.320312 L 1001.609375 239.910156 Z M 588.695312 301.933594 " clip-rule="nonzero"/></clipPath><clipPath id="3e523ff649"><path d="M 778 0.140625 L 972 0.140625 L 972 125 L 778 125 Z M 778 0.140625 " clip-rule="nonzero"/></clipPath><clipPath id="22b49dda4a"><path d="M 588.695312 301.933594 L 537.140625 -41.296875 L 950.054688 -103.320312 L 1001.609375 239.910156 Z M 588.695312 301.933594 " clip-rule="nonzero"/></clipPath><clipPath id="e8c3229b87"><path d="M 588.695312 301.933594 L 537.140625 -41.296875 L 950.054688 -103.320312 L 1001.609375 239.910156 Z M 588.695312 301.933594 " clip-rule="nonzero"/></clipPath><clipPath id="1473fabc5d"><path d="M 815 400 L 911 400 L 911 497 L 815 497 Z M 815 400 " clip-rule="nonzero"/></clipPath><clipPath id="40700b07eb"><path d="M 934.132812 470.277344 L 829.984375 518.316406 L 791.050781 433.90625 L 895.203125 385.871094 Z M 934.132812 470.277344 " clip-rule="nonzero"/></clipPath><clipPath id="88f2ed264d"><path d="M 934.132812 470.277344 L 829.984375 518.316406 L 791.050781 433.90625 L 895.203125 385.871094 Z M 934.132812 470.277344 " clip-rule="nonzero"/></clipPath></defs><g clip-path="url(#709e283927)"><path fill="#ffffff" d="M 0 0.140625 L 1024 0.140625 L 1024 575.859375 L 0 575.859375 Z M 0 0.140625 " fill-opacity="1" fill-rule="nonzero"/><path fill="#ffffff" d="M 0 0.140625 L 1024 0.140625 L 1024 575.859375 L 0 575.859375 Z M 0 0.140625 " fill-opacity="1" fill-rule="nonzero"/></g><path fill="#6098a8" d="M 71.0625 551.058594 C 71.652344 557.378906 61.828125 557.3125 61.238281 551.058594 C 60.8125 546.113281 60.453125 541.234375 60.222656 536.15625 C 58.96875 513.710938 59.230469 491.285156 61.011719 468.875 C 62.792969 446.464844 66.078125 424.277344 70.867188 402.3125 C 80.953125 358.039062 103.15625 306.886719 151.394531 294.179688 C 154.082031 293.527344 156.792969 293.03125 159.53125 292.683594 C 162.273438 292.332031 165.023438 292.136719 167.785156 292.09375 C 170.546875 292.050781 173.300781 292.160156 176.050781 292.421875 C 178.800781 292.683594 181.523438 293.097656 184.230469 293.664062 C 186.933594 294.226562 189.597656 294.941406 192.21875 295.800781 C 194.84375 296.660156 197.414062 297.664062 199.925781 298.808594 C 202.441406 299.953125 204.882812 301.234375 207.253906 302.648438 C 209.625 304.066406 211.910156 305.609375 214.109375 307.277344 C 233.757812 321.457031 246.695312 341.761719 255.796875 363.867188 C 266.082031 388.820312 272.171875 415.511719 279.3125 441.449219 L 284.945312 461.917969 C 285.402344 463.554688 286.023438 468.925781 288.21875 469.578125 C 289.464844 470.003906 291.101562 468.433594 291.984375 467.679688 C 295.914062 464.40625 298.535156 460.015625 302.300781 456.445312 C 305.765625 453.082031 309.824219 450.769531 314.484375 449.503906 C 316.941406 448.90625 319.429688 448.554688 321.957031 448.453125 C 324.484375 448.351562 326.996094 448.5 329.492188 448.898438 C 331.988281 449.300781 334.421875 449.941406 336.789062 450.824219 C 339.160156 451.710938 341.417969 452.820312 343.5625 454.15625 C 345.824219 455.671875 347.953125 457.355469 349.941406 459.214844 C 351.933594 461.070312 353.765625 463.074219 355.433594 465.226562 C 357.101562 467.375 358.589844 469.644531 359.894531 472.035156 C 361.199219 474.425781 362.304688 476.902344 363.214844 479.46875 C 371.957031 501.507812 368.714844 526.691406 378.179688 548.601562 C 380.667969 554.332031 372.1875 559.34375 369.699219 553.546875 C 367.402344 548.261719 365.65625 542.804688 364.457031 537.171875 C 359.773438 515.722656 361.183594 491.324219 348.507812 472.394531 C 347.195312 470.316406 345.65625 468.421875 343.890625 466.707031 C 342.125 464.996094 340.183594 463.515625 338.0625 462.265625 C 335.945312 461.015625 333.710938 460.03125 331.355469 459.3125 C 329.003906 458.59375 326.601562 458.164062 324.144531 458.019531 C 321.90625 457.871094 319.699219 458.074219 317.527344 458.632812 C 315.355469 459.195312 313.324219 460.082031 311.4375 461.292969 C 307.925781 464.214844 304.78125 467.488281 302.007812 471.117188 C 295.914062 477.667969 285.371094 483.59375 279.082031 473.707031 C 275.808594 468.761719 274.988281 461.917969 273.417969 456.316406 L 267.652344 436.011719 C 260.839844 411.285156 255.078125 385.710938 244.53125 362.195312 C 235.296875 341.5 221.609375 322.40625 201.960938 310.847656 C 199.660156 309.46875 197.28125 308.238281 194.824219 307.164062 C 192.367188 306.085938 189.851562 305.167969 187.277344 304.410156 C 184.707031 303.65625 182.09375 303.0625 179.445312 302.636719 C 176.796875 302.210938 174.132812 301.957031 171.453125 301.867188 C 168.769531 301.78125 166.09375 301.863281 163.425781 302.117188 C 160.753906 302.371094 158.109375 302.792969 155.492188 303.378906 C 152.875 303.96875 150.308594 304.722656 147.785156 305.636719 C 145.265625 306.550781 142.8125 307.621094 140.425781 308.851562 C 99.0625 329.777344 84.195312 380.078125 76.859375 422.386719 C 73.117188 443.617188 70.757812 465 69.789062 486.535156 C 68.816406 508.070312 69.242188 529.578125 71.0625 551.058594 Z M 71.0625 551.058594 " fill-opacity="1" fill-rule="nonzero"/><path fill="#bbd6df" d="M 104.074219 551.058594 C 104.859375 557.34375 95.003906 557.246094 94.25 551.058594 C 91.460938 527.445312 90.796875 503.777344 92.257812 480.046875 C 93.714844 456.316406 97.273438 432.90625 102.929688 409.8125 C 107.675781 390.164062 113.636719 369.304688 124.183594 351.882812 C 134.464844 334.949219 153.65625 320.476562 174.453125 325.683594 C 194.722656 330.890625 205.136719 353.320312 213.09375 370.613281 C 222.386719 391.699219 230.148438 413.335938 236.378906 435.519531 C 239.652344 446.359375 242.929688 457.265625 246.203125 468.105469 C 248.003906 474.097656 249.773438 480.15625 251.867188 486.085938 C 252.554688 488.429688 253.527344 490.644531 254.789062 492.738281 C 256.046875 494.828125 257.550781 496.726562 259.300781 498.429688 C 272.207031 509.53125 291.625 497.777344 299.289062 486.148438 C 304.234375 478.585938 311.570312 471.152344 321.296875 475.734375 C 329.121094 479.402344 332.953125 488.3125 335.769531 495.941406 C 342.320312 513.363281 345.332031 531.964844 350.046875 549.746094 C 350.125 550.054688 350.167969 550.367188 350.183594 550.683594 C 350.199219 551 350.183594 551.3125 350.136719 551.625 C 350.09375 551.9375 350.015625 552.246094 349.914062 552.542969 C 349.808594 552.84375 349.675781 553.128906 349.515625 553.402344 C 349.355469 553.675781 349.171875 553.929688 348.960938 554.167969 C 348.753906 554.402344 348.523438 554.617188 348.269531 554.8125 C 348.019531 555.003906 347.753906 555.171875 347.46875 555.3125 C 347.1875 555.453125 346.894531 555.566406 346.589844 555.652344 C 346.28125 555.734375 345.972656 555.789062 345.65625 555.816406 C 345.34375 555.839844 345.027344 555.832031 344.710938 555.796875 C 344.398438 555.761719 344.089844 555.695312 343.789062 555.597656 C 343.488281 555.503906 343.199219 555.378906 342.921875 555.226562 C 342.640625 555.074219 342.382812 554.898438 342.136719 554.695312 C 341.894531 554.492188 341.671875 554.269531 341.472656 554.023438 C 341.273438 553.78125 341.097656 553.519531 340.949219 553.238281 C 340.800781 552.960938 340.675781 552.667969 340.585938 552.367188 C 335.605469 533.570312 332.691406 513.789062 325.226562 495.746094 C 323.621094 491.945312 321.425781 487.066406 317.726562 484.9375 C 313.46875 482.515625 310.457031 487.035156 308.390625 490.144531 C 306.03125 494.023438 303.179688 497.503906 299.839844 500.582031 C 296.5 503.65625 292.800781 506.214844 288.742188 508.253906 C 273.449219 515.394531 255.011719 513.265625 246.171875 497.414062 C 240.996094 487.984375 238.539062 476.71875 235.460938 466.46875 C 232.382812 456.21875 229.238281 445.835938 226.128906 435.292969 C 220.078125 413.730469 212.4375 392.75 203.203125 372.347656 C 195.640625 356.761719 185.191406 333.769531 164.660156 334.492188 C 143.503906 335.410156 131.582031 356.238281 124.511719 373.789062 C 117.429688 392.0625 112.148438 410.835938 108.660156 430.117188 C 104.773438 450.035156 102.445312 470.132812 101.675781 490.410156 C 100.90625 510.6875 101.707031 530.902344 104.074219 551.058594 Z M 104.074219 551.058594 " fill-opacity="1" fill-rule="nonzero"/><path fill="#d8a167" d="M 158.601562 549.746094 C 159.648438 555.96875 150.183594 558.589844 149.136719 552.367188 C 146.039062 532.519531 144.269531 512.554688 143.832031 492.46875 C 143.242188 473.445312 142.621094 453.171875 149.332031 434.996094 C 149.597656 433.914062 149.980469 432.878906 150.484375 431.886719 C 150.988281 430.894531 151.597656 429.972656 152.3125 429.121094 C 153.027344 428.269531 153.832031 427.507812 154.722656 426.84375 C 155.613281 426.175781 156.566406 425.617188 157.585938 425.171875 C 158.4375 424.90625 159.308594 424.746094 160.199219 424.679688 C 161.089844 424.617188 161.972656 424.65625 162.855469 424.800781 C 163.734375 424.941406 164.585938 425.183594 165.410156 425.523438 C 166.238281 425.863281 167.011719 426.289062 167.738281 426.808594 C 174.714844 431.492188 177.136719 440.238281 179.070312 447.898438 C 183.324219 464.699219 184.472656 482.089844 186.535156 499.214844 C 188.597656 516.34375 191.316406 533.570312 199.832031 548.535156 C 199.980469 548.8125 200.101562 549.101562 200.195312 549.402344 C 200.285156 549.703125 200.351562 550.011719 200.382812 550.324219 C 200.417969 550.636719 200.421875 550.953125 200.394531 551.265625 C 200.371094 551.578125 200.3125 551.886719 200.226562 552.191406 C 200.140625 552.496094 200.027344 552.789062 199.886719 553.070312 C 199.742188 553.351562 199.578125 553.613281 199.382812 553.863281 C 199.191406 554.113281 198.976562 554.339844 198.738281 554.550781 C 198.5 554.757812 198.246094 554.941406 197.976562 555.097656 C 197.703125 555.257812 197.417969 555.386719 197.121094 555.492188 C 196.824219 555.597656 196.519531 555.671875 196.207031 555.714844 C 195.894531 555.761719 195.582031 555.777344 195.265625 555.761719 C 194.953125 555.746094 194.640625 555.703125 194.335938 555.625 C 194.03125 555.550781 193.734375 555.449219 193.449219 555.316406 C 193.160156 555.183594 192.890625 555.027344 192.632812 554.84375 C 192.378906 554.660156 192.140625 554.453125 191.925781 554.222656 C 191.710938 553.996094 191.519531 553.746094 191.347656 553.480469 C 182.769531 538.449219 179.59375 521.289062 177.367188 504.359375 C 175.300781 488.800781 174.289062 473.050781 171.210938 457.625 C 169.867188 451.078125 168.6875 442.167969 164.167969 436.796875 C 161.320312 433.523438 159.945312 434.472656 158.566406 438.304688 C 157.121094 442.582031 156.027344 446.949219 155.292969 451.402344 C 152.378906 467.777344 153.394531 485.296875 154.179688 502 C 154.777344 517.960938 156.296875 533.832031 158.730469 549.617188 Z M 426.320312 533.699219 C 449.964844 505.503906 465.0625 463.75 453.535156 427.398438 C 453.429688 427.039062 453.285156 426.699219 453.101562 426.371094 C 452.921875 426.042969 452.703125 425.742188 452.453125 425.464844 C 452.203125 425.1875 451.925781 424.941406 451.621094 424.726562 C 451.3125 424.511719 450.988281 424.332031 450.640625 424.191406 C 450.296875 424.050781 449.9375 423.949219 449.570312 423.886719 C 449.199219 423.824219 448.828125 423.804688 448.457031 423.828125 C 448.082031 423.851562 447.714844 423.914062 447.355469 424.019531 C 447 424.125 446.65625 424.269531 446.328125 424.453125 C 431.394531 433.71875 427.464844 452.089844 424.191406 468.105469 C 422.617188 475.996094 421.375 483.988281 420.328125 491.980469 C 418.679688 487.023438 416.683594 482.210938 414.335938 477.542969 C 411.992188 472.875 409.324219 468.398438 406.328125 464.121094 C 403.332031 459.839844 400.046875 455.796875 396.464844 451.992188 C 392.886719 448.1875 389.050781 444.664062 384.957031 441.414062 C 384.609375 441.085938 384.222656 440.816406 383.792969 440.601562 C 383.367188 440.382812 382.917969 440.234375 382.445312 440.148438 C 381.972656 440.0625 381.5 440.042969 381.023438 440.09375 C 380.546875 440.144531 380.089844 440.261719 379.644531 440.445312 C 379.203125 440.628906 378.796875 440.871094 378.421875 441.171875 C 378.050781 441.472656 377.726562 441.820312 377.457031 442.214844 C 377.183594 442.605469 376.972656 443.03125 376.820312 443.488281 C 376.671875 443.941406 376.589844 444.40625 376.574219 444.886719 C 377.820312 477.636719 381.914062 520.207031 416.886719 534.914062 C 418.054688 535.417969 419.265625 535.570312 420.523438 535.371094 C 420.953125 535.640625 421.417969 535.820312 421.914062 535.914062 C 422.410156 536.007812 422.910156 536.007812 423.40625 535.914062 C 423.90625 535.820312 424.367188 535.636719 424.796875 535.371094 C 425.226562 535.101562 425.59375 534.761719 425.894531 534.355469 L 426.285156 533.863281 Z M 445.96875 437.453125 C 451.40625 463.816406 442.695312 492.667969 427.859375 515.261719 C 428.710938 501.34375 430.445312 487.535156 433.066406 473.835938 C 435.421875 462.210938 437.519531 446.820312 445.96875 437.453125 Z M 387.023438 456.285156 C 389.25 458.496094 391.371094 460.808594 393.378906 463.21875 C 395.390625 465.628906 397.28125 468.128906 399.058594 470.722656 C 400.832031 473.3125 402.480469 475.976562 404.003906 478.722656 C 405.527344 481.46875 406.917969 484.28125 408.179688 487.15625 C 409.4375 490.03125 410.558594 492.960938 411.539062 495.945312 C 412.523438 498.925781 413.363281 501.949219 414.058594 505.007812 C 414.757812 508.070312 415.308594 511.15625 415.714844 514.269531 C 416.125 517.382812 416.382812 520.507812 416.496094 523.648438 C 393.375 510.316406 388.527344 481.859375 387.023438 456.285156 Z M 387.023438 456.285156 " fill-opacity="1" fill-rule="nonzero"/><path fill="#f0d7b8" d="M 331.546875 549.746094 C 333.476562 555.804688 324.011719 558.359375 322.082031 552.367188 C 318.25 540.808594 309.210938 518.40625 293.132812 525.777344 C 286.582031 528.753906 282.03125 535.109375 277.3125 540.21875 C 274.953125 543.09375 272.28125 545.636719 269.296875 547.855469 C 266.308594 550.070312 263.097656 551.890625 259.664062 553.316406 C 242.273438 559.34375 225.636719 546.765625 217.089844 532.523438 C 208.183594 517.785156 203.402344 500.328125 199.472656 483.695312 C 191.773438 450.945312 188.371094 415.742188 170.457031 386.496094 C 166.855469 380.667969 161.808594 370.613281 154.082031 376.671875 C 147.859375 381.453125 144.878906 389.507812 142.226562 396.617188 C 136.382812 412.785156 132.375 429.402344 130.207031 446.457031 C 125.328125 481.105469 125.753906 516.3125 126.34375 551.253906 C 126.34375 557.605469 116.519531 557.574219 116.519531 551.253906 C 115.699219 509.761719 115.210938 467.910156 123.394531 427.234375 C 125.070312 418.546875 127.253906 409.988281 129.945312 401.5625 C 132.28125 393.195312 135.632812 385.257812 140 377.753906 C 144.257812 371.203125 150.96875 364.390625 159.355469 364.652344 C 168.359375 364.882812 173.535156 373.136719 177.855469 379.914062 C 197.507812 410.761719 200.976562 448.226562 209.394531 483.007812 C 213.488281 499.96875 218.300781 519.421875 229.46875 533.273438 C 235.070312 540.25 243.945312 546.113281 253.34375 544.769531 C 260.449219 543.789062 265.722656 538.21875 270.371094 533.339844 C 279.476562 523.515625 289.53125 511.824219 304.5625 515.296875 C 319.59375 518.765625 327.289062 536.386719 331.546875 549.746094 Z M 414.171875 418.230469 L 413.941406 417.96875 C 414.007812 418.0625 414.082031 418.152344 414.171875 418.230469 Z M 417.738281 438.992188 C 416.121094 439.496094 414.472656 439.636719 412.796875 439.40625 C 411.117188 439.179688 409.566406 438.601562 408.144531 437.683594 C 406.707031 436.753906 405.464844 435.613281 404.421875 434.257812 C 403.375 432.90625 402.585938 431.414062 402.054688 429.789062 C 401.09375 426.773438 400.578125 423.6875 400.515625 420.523438 C 400.242188 418.839844 400.34375 417.183594 400.820312 415.550781 C 401.296875 413.914062 402.101562 412.460938 403.230469 411.1875 C 404.453125 410.074219 405.816406 409.175781 407.320312 408.492188 C 408.824219 407.8125 410.398438 407.378906 412.042969 407.195312 C 412.769531 406.871094 413.53125 406.726562 414.328125 406.769531 C 415.125 406.808594 415.867188 407.027344 416.5625 407.421875 C 417.933594 408.292969 419.1875 409.308594 420.324219 410.472656 C 421.457031 411.636719 422.4375 412.917969 423.269531 414.316406 C 424.101562 415.714844 424.757812 417.1875 425.238281 418.742188 C 425.722656 420.292969 426.015625 421.878906 426.125 423.503906 C 426.648438 429.625 423.894531 436.832031 417.738281 438.992188 Z M 412.730469 428.9375 Z M 414.695312 429.691406 Z M 414.695312 429.691406 Z M 414.695312 429.691406 Z M 415.25 429.460938 Z M 416.429688 426.1875 C 416.429688 426.1875 416.429688 425.957031 416.429688 425.859375 C 416.496094 424.988281 416.496094 424.113281 416.429688 423.238281 C 416.429688 422.8125 416.265625 422.421875 416.167969 422.027344 C 416.070312 421.636719 415.871094 421.046875 415.710938 420.585938 C 415.355469 419.816406 414.929688 419.082031 414.433594 418.394531 C 414.433594 418.394531 414.433594 418.394531 414.433594 418.230469 C 414.433594 418.066406 414.171875 417.933594 414.203125 417.96875 L 413.875 417.671875 C 413.375 417.632812 412.894531 417.515625 412.433594 417.3125 L 411.78125 417.3125 L 410.699219 417.933594 L 410.699219 420.421875 C 410.699219 420.980469 410.699219 421.539062 410.699219 422.125 L 410.699219 423.042969 C 410.699219 423.273438 410.699219 423.730469 410.699219 423.828125 C 410.699219 423.929688 410.699219 424.320312 410.699219 424.550781 C 410.699219 424.78125 410.929688 425.53125 411.089844 425.992188 C 411.253906 426.449219 411.089844 426.480469 411.289062 426.710938 C 411.515625 427.136719 411.78125 427.5625 412.007812 428.019531 L 412.402344 428.445312 C 412.503906 428.554688 412.613281 428.652344 412.730469 428.742188 L 413.480469 429.167969 C 413.253906 429.167969 412.925781 429.167969 413.480469 429.167969 L 414.5625 429.167969 C 414.714844 428.949219 414.886719 428.753906 415.085938 428.578125 L 415.085938 428.414062 L 415.445312 427.726562 L 415.445312 427.269531 C 416.003906 427.332031 416.136719 426.875 416.234375 426.449219 Z M 416.429688 425.566406 Z M 413.808594 429.460938 Z M 413.808594 429.460938 " fill-opacity="1" fill-rule="nonzero"/><g clip-path="url(#73871ea0ae)"><path fill="#cde1e8" d="M -23.46875 -114.605469 L -23.46875 386.820312 C -23.46875 386.820312 66.613281 399.75 100.03125 321.289062 C 133.453125 242.828125 108.605469 138.070312 224.988281 100.4375 C 377.550781 51.035156 313.621094 -114.605469 313.621094 -114.605469 Z M -23.46875 -114.605469 " fill-opacity="1" fill-rule="nonzero"/></g><g clip-path="url(#1e139bb939)"><path fill="#ffffff" d="M 1009.949219 667.265625 L 1009.949219 189.59375 C 1009.949219 189.59375 924.128906 177.273438 892.292969 252.019531 C 860.460938 326.765625 884.128906 426.5625 773.257812 462.410156 C 627.921875 509.472656 688.824219 667.265625 688.824219 667.265625 Z M 1009.949219 667.265625 " fill-opacity="1" fill-rule="nonzero"/></g><g clip-path="url(#b439a3a136)"><g clip-path="url(#7313f4bf17)"><g clip-path="url(#f3b5430ce9)"><path fill="#6098a8" d="M 978.976562 175.019531 C 980.355469 169.316406 989.507812 170.332031 988.113281 176.128906 C 986.136719 184.285156 983.042969 191.992188 978.828125 199.253906 C 977.761719 201.0625 976.640625 202.839844 975.457031 204.574219 C 974.273438 206.3125 973.03125 208.007812 971.738281 209.660156 C 970.441406 211.316406 969.089844 212.925781 967.6875 214.488281 C 966.285156 216.054688 964.832031 217.570312 963.328125 219.039062 C 961.824219 220.507812 960.273438 221.921875 958.675781 223.289062 C 957.078125 224.652344 955.4375 225.964844 953.753906 227.222656 C 952.070312 228.476562 950.34375 229.675781 948.582031 230.816406 C 946.816406 231.960938 945.015625 233.042969 943.179688 234.0625 C 941.34375 235.085938 939.476562 236.046875 937.574219 236.941406 C 935.675781 237.839844 933.746094 238.675781 931.792969 239.445312 C 929.835938 240.214844 927.859375 240.917969 925.855469 241.558594 C 923.855469 242.195312 921.832031 242.765625 919.792969 243.273438 C 917.753906 243.777344 915.699219 244.210938 913.628906 244.578125 C 911.558594 244.949219 909.480469 245.246094 907.390625 245.476562 C 905.304688 245.707031 903.207031 245.867188 901.109375 245.957031 C 899.007812 246.046875 896.910156 246.066406 894.808594 246.019531 C 874.722656 245.1875 856.527344 235.84375 837.261719 231.164062 C 833.015625 230.152344 828.714844 229.496094 824.363281 229.195312 C 820.007812 228.898438 815.660156 228.957031 811.316406 229.378906 C 806.972656 229.796875 802.691406 230.570312 798.476562 231.699219 C 794.261719 232.828125 790.167969 234.296875 786.195312 236.101562 C 755.328125 249.246094 729.75 273.855469 697.066406 283.171875 C 693.105469 284.382812 689.066406 285.210938 684.945312 285.660156 C 680.828125 286.109375 676.703125 286.171875 672.574219 285.84375 C 668.445312 285.515625 664.382812 284.804688 660.386719 283.710938 C 656.390625 282.617188 652.53125 281.160156 648.8125 279.335938 C 631.664062 270.582031 618.894531 255.429688 607.308594 240.5 C 594.992188 224.625 582.464844 205.707031 581.441406 185.035156 C 580.503906 165.988281 590.570312 150.539062 605.667969 139.675781 C 620.769531 128.808594 637.832031 121.710938 651.96875 109.625 C 659.097656 103.515625 665.484375 96.714844 671.125 89.210938 C 676.769531 81.710938 681.535156 73.6875 685.425781 65.144531 C 693.195312 48.054688 695.691406 30.171875 698.039062 11.691406 C 700.207031 -6.113281 702.652344 -24.546875 711.992188 -40.074219 C 726.125 -63.367188 754.066406 -69.953125 779.289062 -72.746094 C 809.417969 -76.125 839.847656 -74.828125 870.097656 -76.796875 C 893.523438 -78.296875 922.527344 -80.511719 939.925781 -98.398438 C 944.035156 -102.648438 949.683594 -95.425781 945.6875 -91.222656 C 941.925781 -87.4375 937.707031 -84.257812 933.027344 -81.6875 C 910.476562 -68.984375 881.820312 -67.785156 856.53125 -67.089844 C 827.601562 -65.851562 798.21875 -66.992188 769.523438 -62.308594 C 757.675781 -60.800781 746.503906 -57.199219 736.007812 -51.503906 C 723.921875 -44.347656 716.707031 -32.242188 712.730469 -19.042969 C 707.625 -2.195312 707.210938 15.714844 704.375 32.996094 C 702.933594 42.03125 700.632812 50.839844 697.472656 59.425781 C 694.3125 68.011719 690.351562 76.210938 685.59375 84.023438 C 680.796875 91.894531 675.261719 99.199219 668.980469 105.945312 C 662.703125 112.691406 655.8125 118.734375 648.304688 124.082031 C 634.136719 134.125 617.515625 140.625 604.566406 152.378906 C 571.453125 182.1875 605.121094 225.929688 627.496094 250.691406 C 639.550781 263.78125 654.160156 275.058594 672.535156 276.707031 C 687.730469 278.054688 702.390625 272.53125 715.707031 265.71875 C 744.722656 250.777344 770.691406 227.535156 803.480469 220.996094 C 822.257812 217.246094 840.152344 221.882812 857.929688 227.8125 C 875.703125 233.738281 892.5 238.914062 911.066406 235.847656 C 942.535156 230.625 971.273438 206.410156 978.976562 175.019531 Z M 978.976562 175.019531 " fill-opacity="1" fill-rule="nonzero"/></g></g></g><g clip-path="url(#219c81d53c)"><g clip-path="url(#e8d43b83cd)"><g clip-path="url(#9568b01cca)"><path fill="#bbd6df" d="M 972.953125 131.8125 C 975.714844 126.648438 984.335938 130.101562 981.503906 135.214844 C 978.582031 140.453125 975.035156 145.230469 970.863281 149.539062 C 961.199219 159.640625 950.4375 168.398438 938.585938 175.808594 C 933.058594 179.59375 927.117188 182.554688 920.765625 184.691406 C 913.714844 186.699219 906.527344 187.605469 899.195312 187.40625 C 883.652344 187.257812 868.738281 183.445312 853.535156 181.414062 C 845.707031 180.144531 837.84375 179.882812 829.945312 180.621094 C 822.050781 181.359375 814.371094 183.078125 806.914062 185.777344 C 776.34375 197.382812 751.589844 220.441406 719.582031 228.882812 C 715.960938 229.949219 712.277344 230.71875 708.53125 231.191406 C 704.785156 231.664062 701.023438 231.835938 697.25 231.703125 C 693.476562 231.570312 689.738281 231.136719 686.035156 230.402344 C 682.332031 229.667969 678.710938 228.644531 675.175781 227.324219 C 672.539062 226.1875 670.011719 224.84375 667.59375 223.292969 C 665.175781 221.746094 662.902344 220.011719 660.765625 218.089844 C 658.628906 216.171875 656.664062 214.09375 654.867188 211.855469 C 653.070312 209.613281 651.464844 207.246094 650.054688 204.746094 C 638.632812 185.320312 638.042969 158.464844 652.15625 140.203125 C 660.914062 128.863281 673.777344 121.929688 686.160156 115.292969 C 699.148438 108.34375 711.59375 101.101562 720.5625 89.109375 C 738.121094 65.671875 741.953125 35.390625 755.203125 9.746094 C 758.199219 3.445312 761.867188 -2.433594 766.210938 -7.894531 C 770.550781 -13.351562 775.457031 -18.25 780.925781 -22.582031 C 794.117188 -32.292969 809.179688 -34.308594 825.203125 -33.859375 C 836.980469 -33.148438 848.667969 -33.867188 860.265625 -36.019531 C 870.917969 -38.3125 881.398438 -41.230469 891.699219 -44.777344 C 902.765625 -48.371094 913.480469 -52.804688 923.847656 -58.082031 C 930.839844 -61.738281 938.816406 -66.101562 943.347656 -72.929688 C 946.601562 -77.917969 953.976562 -72.414062 950.75 -67.460938 C 948.703125 -64.445312 946.242188 -61.820312 943.363281 -59.585938 C 935.5625 -53.609375 927.113281 -48.757812 918.015625 -45.035156 C 907.476562 -40.40625 896.6875 -36.457031 885.648438 -33.191406 C 876.1875 -30.222656 866.585938 -27.804688 856.84375 -25.945312 C 843.851562 -23.589844 830.945312 -24.972656 817.835938 -24.835938 C 814.257812 -24.886719 810.710938 -24.574219 807.199219 -23.898438 C 803.683594 -23.226562 800.273438 -22.203125 796.964844 -20.835938 C 793.660156 -19.464844 790.527344 -17.777344 787.5625 -15.769531 C 784.601562 -13.761719 781.875 -11.472656 779.378906 -8.910156 C 774.753906 -3.839844 770.65625 1.625 767.082031 7.484375 C 763.507812 13.339844 760.523438 19.484375 758.128906 25.914062 C 747.335938 51.375 741.921875 80.03125 722.691406 100.800781 C 712.996094 111.261719 700.644531 117.894531 688.210938 124.605469 C 676.726562 130.800781 664.292969 137.511719 657.089844 149.085938 C 645.703125 167.09375 649.875 192.601562 663.628906 208.105469 C 683.152344 230.007812 715.527344 222.972656 739.011719 211.929688 C 767.636719 198.320312 792.828125 175.910156 825.257812 171.722656 C 840.117188 169.800781 855.019531 172.28125 869.671875 174.765625 C 884.324219 177.253906 898.738281 180.023438 913.132812 177.273438 C 925.5625 174.878906 936.410156 166.914062 946.234375 159.355469 C 956.054688 151.796875 966.957031 142.957031 972.957031 131.84375 Z M 972.953125 131.8125 " fill-opacity="1" fill-rule="nonzero"/></g></g></g><g clip-path="url(#3344c88a28)"><g clip-path="url(#428acd01de)"><g clip-path="url(#ecfaaf1532)"><path fill="#f0d7b8" d="M 966.527344 92.144531 C 966.878906 86.222656 976.019531 87.335938 975.660156 93.226562 C 975.335938 96.785156 974.191406 100.0625 972.234375 103.050781 C 969.757812 106.695312 966.933594 110.039062 963.757812 113.082031 C 960.578125 116.128906 957.117188 118.808594 953.375 121.125 C 945.371094 126.550781 936.960938 131.238281 928.136719 135.191406 C 919.671875 139.410156 910.71875 141.789062 901.273438 142.332031 C 889.210938 142.621094 877.535156 139.6875 865.808594 137.257812 C 854.082031 134.832031 842.273438 132.691406 830.625 135.527344 C 818.648438 138.445312 808.65625 146.960938 799.636719 155.113281 C 790.296875 164.261719 780.136719 172.378906 769.152344 179.46875 C 763.3125 183.027344 757.148438 185.882812 750.660156 188.035156 C 744.167969 190.191406 737.519531 191.585938 730.714844 192.226562 C 720.433594 193.023438 708.839844 191.257812 701.464844 183.488281 C 693.335938 175.054688 694.554688 163.105469 700.253906 153.746094 C 706.78125 143.050781 717.617188 135.617188 727.453125 128.148438 C 738.699219 119.847656 748.988281 110.492188 758.3125 100.078125 C 762.46875 95.394531 766.050781 90.3125 769.0625 84.824219 C 772.074219 79.339844 774.4375 73.585938 776.152344 67.566406 C 779.109375 55.851562 776.121094 42.984375 780.824219 31.726562 C 785.851562 19.734375 799.796875 13.355469 811.578125 9.132812 C 818.410156 6.796875 825.40625 5.15625 832.566406 4.210938 C 840.285156 3.507812 847.902344 2.226562 855.425781 0.371094 C 872.316406 -5.246094 888.53125 -12.390625 904.078125 -21.058594 C 912.941406 -25.546875 921.5 -30.546875 929.761719 -36.0625 C 936.085938 -39.921875 941.574219 -44.738281 946.214844 -50.515625 C 949.6875 -55.320312 957.085938 -49.851562 953.617188 -45.046875 C 951.664062 -42.425781 949.46875 -40.027344 947.03125 -37.847656 C 933.65625 -25.625 916.589844 -16.917969 900.460938 -8.96875 C 885.117188 -1.386719 868.710938 6.976562 851.777344 10.574219 C 837.761719 13.582031 823.628906 13.71875 810.1875 19.304688 C 804.132812 21.597656 798.613281 24.804688 793.628906 28.933594 C 792.628906 29.925781 791.734375 31.007812 790.945312 32.179688 C 790.15625 33.347656 789.488281 34.585938 788.945312 35.886719 C 788.402344 37.1875 787.988281 38.53125 787.707031 39.914062 C 787.425781 41.296875 787.285156 42.691406 787.277344 44.101562 C 786.785156 50.105469 787.125 56.109375 786.3125 62.066406 C 785.503906 67.902344 783.992188 73.550781 781.78125 79.011719 C 777.199219 90.097656 770.816406 100.027344 762.632812 108.800781 C 753.492188 118.460938 743.613281 127.289062 732.996094 135.292969 C 723.890625 142.464844 713.152344 149.292969 707.316406 159.636719 C 701.816406 169.3125 705.835938 178.703125 716.367188 181.871094 C 726.902344 185.039062 740.015625 182.230469 750.382812 178.3125 C 762.480469 173.5 773.324219 166.699219 782.921875 157.902344 C 791.832031 150.046875 800.183594 141.375 810.21875 134.835938 C 815.101562 131.589844 820.351562 129.121094 825.964844 127.429688 C 831.582031 125.738281 837.324219 124.902344 843.1875 124.917969 C 854.644531 124.9375 865.804688 127.730469 876.9375 130.15625 C 888.074219 132.578125 899.15625 134.421875 910.175781 131.960938 C 917.800781 129.910156 925.054688 126.945312 931.9375 123.074219 C 940.296875 118.945312 948.089844 113.9375 955.320312 108.042969 C 960.085938 104.226562 966.03125 98.769531 966.4375 92.15625 Z M 966.527344 92.144531 " fill-opacity="1" fill-rule="nonzero"/></g></g></g><g clip-path="url(#3e523ff649)"><g clip-path="url(#22b49dda4a)"><g clip-path="url(#e8c3229b87)"><path fill="#d8a167" d="M 963.171875 62.351562 C 966.996094 57.867188 974.425781 63.300781 970.574219 67.820312 C 966.363281 72.390625 961.527344 76.160156 956.066406 79.125 C 949.234375 83.128906 942.171875 86.671875 934.878906 89.757812 C 927.804688 92.835938 920.582031 95.503906 913.203125 97.761719 C 907.171875 99.875 900.964844 101.046875 894.578125 101.273438 C 877.953125 101.164062 862.460938 89.367188 845.832031 95.839844 C 831.632812 101.324219 821.132812 113.238281 807.679688 120.195312 C 804.46875 121.964844 801.074219 123.238281 797.492188 124.015625 C 793.90625 124.789062 790.289062 125.035156 786.636719 124.753906 C 782.269531 124.199219 778.402344 121.394531 778.890625 116.605469 C 779.566406 112.75 781 109.203125 783.191406 105.960938 C 792.074219 91.125 809.179688 84.304688 819.320312 70.609375 C 822.039062 67.125 823.800781 63.207031 824.601562 58.859375 C 824.886719 54.828125 824.839844 50.800781 824.464844 46.773438 C 824.425781 45.738281 824.460938 44.707031 824.574219 43.675781 C 824.6875 42.644531 824.875 41.625 825.136719 40.625 C 825.398438 39.621094 825.730469 38.640625 826.136719 37.6875 C 826.539062 36.730469 827.011719 35.8125 827.550781 34.925781 C 828.09375 34.042969 828.691406 33.199219 829.355469 32.402344 C 830.019531 31.605469 830.734375 30.859375 831.507812 30.167969 C 832.28125 29.476562 833.097656 28.84375 833.960938 28.269531 C 834.828125 27.699219 835.726562 27.191406 836.667969 26.75 C 845.136719 22.375 854.773438 23.285156 863.894531 23.25 C 870.101562 23.15625 876.15625 22.152344 882.066406 20.242188 C 895.878906 15.914062 909.164062 10.328125 921.921875 3.484375 C 932.132812 -1.898438 943.964844 -8.050781 951.308594 -17.226562 C 955.023438 -21.851562 962.425781 -16.382812 958.710938 -11.757812 C 950.53125 -1.527344 937.941406 5.363281 926.558594 11.417969 C 913.167969 18.683594 899.191406 24.550781 884.625 29.015625 C 879.085938 30.839844 873.40625 31.949219 867.585938 32.351562 C 858.734375 32.71875 849.050781 30.882812 840.8125 34.914062 C 832.160156 39.316406 833.890625 47.128906 833.941406 55.316406 C 833.878906 59.273438 833.167969 63.113281 831.804688 66.828125 C 830.441406 70.546875 828.503906 73.9375 825.992188 76.996094 C 816.023438 89.761719 799.765625 96.644531 791.132812 110.480469 C 790.234375 111.921875 789.585938 115.058594 788.464844 116.066406 C 788.328125 117.015625 787.839844 116.875 787.097656 115.648438 L 787.675781 115.5625 C 788.460938 115.519531 789.242188 115.558594 790.019531 115.675781 C 793.136719 115.609375 796.152344 115.023438 799.070312 113.914062 C 805.433594 111.261719 811.316406 107.789062 816.71875 103.503906 C 828.183594 95.105469 840.257812 85.160156 855.140625 84.632812 C 870.574219 84.050781 884.808594 94.300781 900.269531 91.636719 C 912.257812 89.113281 923.746094 85.152344 934.742188 79.753906 C 944.25 75.46875 956.355469 70.296875 963.171875 62.351562 Z M 963.171875 62.351562 " fill-opacity="1" fill-rule="nonzero"/></g></g></g><g clip-path="url(#1473fabc5d)"><g clip-path="url(#40700b07eb)"><g clip-path="url(#88f2ed264d)"><path fill="#6098a8" d="M 859.84375 403.902344 C 858.957031 405.566406 859.042969 407.8125 860.847656 410.484375 C 863.324219 414.148438 869.667969 419.535156 878.167969 426.871094 C 882.816406 430.878906 887.148438 434.203125 891.066406 436.035156 C 894.566406 437.667969 897.820312 438.160156 900.773438 437.320312 C 903.714844 436.488281 906.480469 434.320312 908.828125 430.15625 C 910.8125 426.632812 911.332031 423.609375 910.726562 420.953125 C 910.117188 418.277344 908.339844 415.855469 905.207031 413.660156 C 901.789062 411.265625 896.585938 409.042969 889.648438 406.683594 C 878.941406 403.042969 870.578125 400.863281 865.933594 400.964844 C 862.660156 401.035156 860.707031 402.273438 859.84375 403.902344 Z M 824.097656 441.601562 C 822.269531 441.8125 820.398438 443.179688 819.140625 446.203125 C 817.355469 450.492188 816.335938 459.074219 815.820312 470.367188 C 815.488281 477.691406 815.660156 483.347656 816.640625 487.402344 C 817.542969 491.117188 819.152344 493.660156 821.421875 495.203125 C 823.671875 496.734375 826.679688 497.351562 830.683594 496.789062 C 835.417969 496.121094 838.441406 494.335938 840.292969 491.898438 C 842.148438 489.457031 842.878906 486.246094 842.632812 482.394531 C 842.359375 478.074219 840.839844 472.832031 838.800781 467.042969 C 835.070312 456.453125 832.367188 448.578125 829.859375 444.941406 C 828.03125 442.285156 825.972656 441.382812 824.097656 441.601562 Z M 848.605469 431.730469 C 846.808594 432.933594 845.667969 435.394531 845.972656 439.230469 C 846.441406 445.199219 850.339844 455.636719 856.386719 468.890625 C 860.304688 477.476562 863.8125 483.855469 867.316406 487.921875 C 870.398438 491.5 873.578125 493.414062 876.9375 493.832031 C 880.28125 494.25 883.925781 493.199219 888.011719 490.320312 C 892.867188 486.90625 895.226562 483.242188 895.894531 479.503906 C 896.558594 475.757812 895.519531 471.808594 893.070312 467.691406 C 890.222656 462.910156 885.402344 457.804688 879.671875 452.375 C 869.148438 442.398438 861.414062 434.925781 856.386719 432.21875 C 853.0625 430.429688 850.445312 430.503906 848.605469 431.730469 Z M 848.605469 431.730469 " fill-opacity="1" fill-rule="evenodd"/></g></g></g></svg>